<svg width="69" height="24" viewBox="0 0 69 24" fill="none" xmlns="http://www.w3.org/2000/svg">
<g clip-path="url(#clip0_1_2771)">
<path d="M1.74642 24C1.30126 24 0.956524 24 0.513652 24C0.513652 24 0.382609 24 0 24V1.83371C0 1.22247 0.171217 0.773034 0.513652 0.485394C0.890329 0.161798 1.30126 0 1.74642 0C2.19158 0 2.58539 0.161798 2.92782 0.485394C3.3045 0.773034 3.49283 1.22247 3.49283 1.83371V12.3506C3.49283 12.7101 3.5442 12.8899 3.64693 12.8899C3.74966 12.8899 3.88664 12.818 4.05785 12.6742L10.4271 7.87416C10.8038 7.6584 11.1463 7.55058 11.4544 7.55058C11.9338 7.55058 12.3277 7.73034 12.6358 8.08986C12.944 8.4135 13.0981 8.77302 13.0981 9.16854C13.0981 9.77976 12.8242 10.2652 12.2763 10.6247L7.03703 14.0764C6.72884 14.2921 6.57475 14.5079 6.57475 14.7236C6.57475 14.9393 6.69458 15.173 6.9343 15.4247L12.5331 20.9798C12.9098 21.4472 13.0981 21.8786 13.0981 22.2742C13.0981 22.7416 12.9269 23.1371 12.5845 23.4607C12.242 23.8202 11.8483 24 11.4031 24C10.9579 24 10.547 23.8022 10.1703 23.4067L4.16058 17.1506C3.92088 16.8989 3.76679 16.7731 3.6983 16.7731C3.56133 16.7731 3.49283 16.9888 3.49283 17.4202V22.3281C3.49283 22.8674 3.3045 23.2809 2.92782 23.5685C2.58539 23.8562 2.19158 24 1.74642 24Z" fill="white"/>
<path d="M17.3968 24C16.9516 24 16.6435 24 16.164 24H15.6503V1.83371C15.6503 1.22247 15.8216 0.773034 16.164 0.485394C16.5407 0.161798 16.9516 0 17.3968 0C17.8419 0 18.2357 0.161798 18.5782 0.485394C18.9549 0.773034 19.1432 1.22247 19.1432 1.83371V22.3281C19.1432 22.8674 18.9549 23.2809 18.5782 23.5685C18.2357 23.8562 17.8419 24 17.3968 24Z" fill="white"/>
<path d="M30.0013 24C28.5289 24 27.2105 23.6404 26.0462 22.9213C24.8819 22.2022 23.9745 21.2135 23.3238 19.955C22.6732 18.6606 22.3479 17.2224 22.3479 15.6404C22.3479 14.0943 22.6732 12.7101 23.3238 11.4876C23.9745 10.2651 24.8819 9.31235 26.0462 8.62919C27.2105 7.91009 28.5289 7.55057 30.0013 7.55057C30.9601 7.55057 31.8162 7.73033 32.5696 8.08985C33.3229 8.41349 33.9736 8.84495 34.5214 9.38429C34.59 8.88089 34.7954 8.50337 35.1378 8.25167C35.4803 7.96403 35.8569 7.82021 36.2679 7.82021C36.713 7.82021 37.1069 7.98203 37.4493 8.30561C37.826 8.59325 38.0143 9.04271 38.0143 9.65393V22.3281C38.0143 22.8674 37.826 23.2809 37.4493 23.5685C37.1069 23.8562 36.713 24 36.2679 24C35.8227 24 35.0351 24 35.0351 24H34.5214V22.1123C33.9736 22.6876 33.3229 23.1371 32.5696 23.4606C31.8162 23.8202 30.9601 24 30.0013 24ZM30.3095 20.6562C31.6108 20.6562 32.6381 20.2067 33.3914 19.3079C34.1448 18.373 34.5214 17.1506 34.5214 15.6404C34.5214 14.2022 34.1448 13.0517 33.3914 12.1887C32.6381 11.3258 31.6108 10.8944 30.3095 10.8944C28.974 10.8944 27.8953 11.3258 27.0735 12.1887C26.2516 13.0517 25.8407 14.2022 25.8407 15.6404C25.8407 17.1506 26.2516 18.373 27.0735 19.3079C27.8953 20.2067 28.974 20.6562 30.3095 20.6562Z" fill="white"/>
<path d="M45.3776 15.4787V22.3281C45.3776 22.8674 45.1892 23.2809 44.8126 23.5685C44.4701 23.8562 44.0764 24 43.6312 24C43.186 24 42.3984 24 42.3984 24H41.8848V9.65393C41.8848 9.04271 42.0559 8.59325 42.3984 8.30561C42.7751 7.98203 43.186 7.82021 43.6312 7.82021C44.0764 7.82021 44.4701 7.98203 44.8126 8.30561C45.1892 8.59325 45.3776 9.04271 45.3776 9.65393V9.86963C45.857 9.18653 46.4734 8.62919 47.2267 8.19773C48.0143 7.76627 48.8362 7.55057 49.6923 7.55057C50.1032 7.55057 50.5141 7.60451 50.925 7.71233C51.3359 7.82021 51.6441 8.03597 51.8496 8.35955C52.0551 8.68313 52.1578 9.04271 52.1578 9.43817C52.1578 9.90563 52.0037 10.3371 51.6955 10.7325C51.4216 11.0921 51.0107 11.2719 50.4627 11.2719C50.223 11.2719 49.9662 11.2359 49.6923 11.164C49.4525 11.0921 49.1443 11.0562 48.7677 11.0562C47.7746 11.0562 46.9528 11.4516 46.3022 12.2427C45.6858 13.0337 45.3776 14.1123 45.3776 15.4787Z" fill="white"/>
<path d="M60.9077 24C59.4011 24 58.0312 23.6404 56.7987 22.9213C55.6002 22.2022 54.6585 21.2135 53.9737 19.955C53.2887 18.6606 52.9463 17.2224 52.9463 15.6404C52.9463 14.0943 53.2887 12.7101 53.9737 11.4876C54.6585 10.2651 55.6002 9.31235 56.7987 8.62919C58.0312 7.91009 59.4011 7.55057 60.9077 7.55057C62.4148 7.55057 63.7675 7.91009 64.9658 8.62919C66.1641 9.31235 67.1059 10.2651 67.7906 11.4876C68.5097 12.7101 68.8696 14.0943 68.8696 15.6404C68.8696 17.2224 68.5097 18.6606 67.7906 19.955C67.1059 21.2135 66.1641 22.2022 64.9658 22.9213C63.7675 23.6404 62.4148 24 60.9077 24ZM60.9077 20.6562C62.2432 20.6562 63.3221 20.2067 64.144 19.3079C64.9658 18.373 65.3767 17.1506 65.3767 15.6404C65.3767 14.2022 64.9658 13.0517 64.144 12.1887C63.3221 11.3258 62.2432 10.8944 60.9077 10.8944C59.5383 10.8944 58.4421 11.3258 57.6203 12.1887C56.833 13.0517 56.4392 14.2022 56.4392 15.6404C56.4392 17.1506 56.833 18.373 57.6203 19.3079C58.4421 20.2067 59.5383 20.6562 60.9077 20.6562Z" fill="white"/>
</g>
<defs>
<clipPath id="clip0_1_2771">
<rect width="68.8696" height="24" fill="white"/>
</clipPath>
</defs>
</svg>
